<?xml version="1.0" encoding="iso-8859-1"?>
<!-- Generator: Adobe Illustrator 19.0.0, SVG Export Plug-In . SVG Version: 6.00 Build 0)  -->
<svg version="1.1" id="Layer_1" xmlns="http://www.w3.org/2000/svg" xmlns:xlink="http://www.w3.org/1999/xlink" x="0px" y="0px"
	 viewBox="0 0 960 560" style="enable-background:new 0 0 960 560;" xml:space="preserve">
<linearGradient id="SVGID_1_" gradientUnits="userSpaceOnUse" x1="364.2849" y1="286.7094" x2="621.3492" y2="286.7094">
	<stop  offset="0" style="stop-color:#6C5034"/>
	<stop  offset="1" style="stop-color:#2E1000"/>
</linearGradient>
<path style="fill:url(#SVGID_1_);" d="M524.58,560c-11.74,0-23.479,0-35.219,0c-2.515-0.102-5.029-0.277-7.544-0.294
	c-26.545-0.175-53.09-0.328-79.635-0.477c-4.871-0.027-9.743-0.004-14.731-0.004c0.131-0.952,0.201-1.637,0.322-2.307
	c1.247-6.877,2.411-13.781,3.776-20.62c2.519-12.624,4.307-25.402,5.416-38.35c1.126-13.15,2.265-26.301,3.568-39.424
	c0.875-8.817,2.109-17.568,4.61-25.932c1.369-4.58,3.233-8.705,6.335-11.786c3.115-3.093,6.063-6.481,9.283-9.378
	c6.122-5.507,11.461-12.142,16.929-18.595c1.76-2.077,3.331-4.414,4.989-6.632c-7.88,8.115-15.551,16.486-26.165,19.423
	c5.708-13.312,5.371-25.463,4.202-29.349c-3.949,15.537-8.14,25.925-11.969,29.505c0.28-0.754,0.491-1.391,0.745-1.998
	c2.581-6.174,3.728-12.785,3.908-19.755c0.304-11.779-1.917-23.006-5.186-33.774c-2.742-9.032-6.469-17.578-9.789-26.321
	c-0.444-1.17-1.057-2.236-1.837-3.861c2.254,7.134,4.428,13.617,6.358,20.216c2.792,9.545,4.81,19.338,4.74,29.638
	c-0.068,10-2.258,18.915-8.343,25.754c-0.502,0.564-0.979,1.164-1.468,1.747c-0.021-0.679,0.251-0.968,0.448-1.325
	c1.852-3.356,4.089-6.481,5.451-10.138c2.902-7.787,2.355-16.113,1.25-24.331c-1.255-9.329-4.275-17.925-7.404-26.38
	c-2.852-7.704-6.044-15.237-9.466-22.555c-4.212-9.007-8.703-17.812-13.286-26.522c-4.511-8.572-8.055-17.625-9.734-27.779
	c-0.315-1.907-0.568-3.83-0.85-5.746c0-3.364,0-6.727,0-10.091c0.09-0.326,0.236-0.646,0.263-0.98
	c0.697-8.836,3.019-17.102,6.094-24.911c3.12-7.923,6.718-15.562,10.387-23.103c6.881-14.145,13.976-28.112,18.578-43.836
	c2.815-9.617,4.769-19.451,5.567-29.694c0.591-7.58,1.303-15.163,2.319-22.666c1.828-13.489,6.02-25.894,11.812-37.312
	c5.71-11.258,12.987-20.688,21.719-28.288c9.899-8.616,20.749-14.08,32.506-16.707c2.958-0.661,5.945-1.104,8.919-1.648
	c3.621,0,7.241,0,10.862,0c2.326,0.406,4.66,0.75,6.977,1.228c12.415,2.562,23.922,7.915,33.834,18.11
	c0.932,0.959,1.747,2.117,2.717,3.001c2.888,2.629,5.954,4.963,8.716,7.786c4.479,4.578,8.289,10.051,11.216,16.348
	c4.092,8.805,6.612,18.427,7.982,28.494c1.725,12.673,3.169,25.41,4.97,38.064c2.138,15.026,5.363,29.71,9.835,43.873
	c3.335,10.563,7.35,20.778,10.65,31.357c5.89,18.883,7.215,38.264,2.72,57.984c-2.048,8.985-5.174,17.327-9.884,25.214
	c4.583,6.731,9.277,13.647,14.005,20.525c0.336,0.489,0.914,0.719,1.394,1.032c3.059,1.99,6.31,3.609,9.147,6.024
	c6.956,5.922,11.592,14.186,12.848,24.82c0.714,6.041,0.413,12.28,0.549,18.43c0.133,6.01,0.242,12.021,0.361,18.032
	c0,7.848,0,15.697,0,23.545c-0.162,1.939-0.302,3.881-0.49,5.816c-0.817,8.406-1.809,16.789-2.44,25.217
	c-1.194,15.964-2.274,31.944-3.239,47.934c-1.541,25.556-2.948,51.125-4.414,76.688c-0.086,1.497-0.202,2.99-0.305,4.505
	c-1.666-0.147-1.619-1.459-1.644-2.748c-0.337-17.829,1.013-35.553,2.133-53.283c1.04-16.467,2.313-32.911,3.503-49.363
	c0.67-9.273,1.177-18.575,2.118-27.804c1.394-13.676,3.266-27.289,3.124-41.139c-0.135-13.235-0.144-26.49-0.76-39.695
	c-0.468-10.045-3.521-18.911-9.467-26.003c-9.33-11.129-19.909-14.058-31.852-8.364c-6.238,2.974-11.575,7.916-16.58,13.421
	c-2.281,2.509-4.384,5.28-6.586,7.907c-0.325,0.388-0.754,0.636-1.134,0.948c-0.082-0.162-0.163-0.324-0.245-0.486
	c5.645-8.876,12.499-15.947,20.219-21.77c-0.486-0.073-0.926-0.074-1.342,0.054c-8.933,2.744-17.892,5.359-26.784,8.302
	c-8.035,2.659-15.697,6.578-22.842,12.077c-4.807,3.7-8.741,8.341-11.098,15.006c-2.815,7.964-5.893,15.78-8.602,23.8
	c-5.962,17.649-10.783,35.771-13.099,54.848c-1.553,12.797-1.33,25.447,2.559,37.613c2.068,6.47,4.377,12.82,6.714,19.142
	c1.346,3.642,2.965,7.12,4.655,11.132c2.835-3.518,5.509-6.609,7.97-9.954c2.47-3.357,4.885-6.82,7.037-10.509
	c2.112-3.62,3.864-7.583,5.938-11.723c-0.723,2.554-1.293,4.806-1.99,6.992c-3.423,10.724-8.236,20.363-14.029,29.24
	c-1.9,2.911-1.869,3.072-0.371,6.101c5.175,10.469,10.357,20.932,15.524,31.406c2.362,4.786,4.696,9.595,7.205,14.723
	c0.521-0.79,0.926-1.451,1.368-2.068c5.47-7.642,11.037-15.175,16.388-22.95c3.538-5.14,6.805-10.588,10.12-15.972
	c1.318-2.141,2.487-4.442,3.62-6.752c0.454-0.926,0.908-2.085,0.887-3.122c-0.201-9.944-0.309-19.902-0.835-29.822
	c-0.459-8.641-1.078-17.317-2.253-25.836c-1.363-9.88-2.435-19.957-6.169-29.042c-1.372-3.339-2.896-6.575-4.329-9.874
	c-0.568-1.309-1.077-2.66-1.612-3.992c1.845,2.581,3.379,5.388,5.002,8.109c2.813,4.719,5.229,9.761,6.218,15.573
	c1.673,9.831,3.7,19.669,4.407,29.64c1.112,15.678,1.665,31.467,1.695,47.211c0.034,17.922-0.755,35.848-1.226,53.77
	c-0.038,1.458-0.383,2.904-0.585,4.355c-0.211,0.005-0.421,0.011-0.632,0.016c-0.219-2.157-0.664-4.322-0.62-6.47
	c0.287-13.796,0.684-27.588,1.036-41.382c0.033-1.295,0.004-2.593,0.004-4.269c-2.48,4.754-4.695,9.157-7.034,13.449
	c-5.786,10.618-12.567,20.128-20.019,28.861C532.349,551.23,528.445,555.588,524.58,560z M473.228,129.066
	c-7.01,7.382-12.634,16.166-16.499,26.71c-1.785,4.871-3.303,9.838-4.029,15.208c-0.612,4.525-1.617,8.965-2.479,13.432
	c-0.073,0.378-0.38,0.683-0.579,1.022l0.003,0.002c1.201-7.283,2.402-14.566,3.603-21.85c-0.138-0.044-0.275-0.088-0.413-0.132
	c-0.608,2.301-1.249,4.588-1.819,6.905c-2.936,11.935-4.401,24.1-3.477,36.636c0.348,4.715,1.136,9.161,3.438,13.117
	c2.481,4.264,4.715,8.769,6.966,13.243c2.871,5.706,5.641,11.494,8.478,17.229c1.378,2.787,3.305,4.835,5.573,6.347
	c1.97,1.314,4.036,2.361,6.298,1.559c2.421-0.859,4.921-1.589,7.173-2.949c6.332-3.823,12.644-7.731,18.799-11.993
	c8.688-6.015,16.983-12.838,24.125-21.677c4.06-5.024,7.147-10.719,7.55-18.308c0.393-7.412,1.025-14.803,1.553-22.203
	c-0.118,7.749-0.227,15.52-0.474,23.283c-0.312,9.797-4.824,16.796-10,23.109c-7.364,8.982-15.717,16.327-24.48,22.909
	c-2.157,1.62-4.376,3.107-6.338,4.493c0.923,3.845,1.902,7.48,2.656,11.189c0.756,3.719,1.34,7.499,1.909,11.275
	c2.418,16.051-0.823,29.922-9.403,42.109c-3.22,4.574-5.633,10.094-8.289,15.287c-0.697,1.364-1.013,3.09-1.331,4.705
	c-0.139,0.706-0.038,1.932,0.315,2.234c0.39,0.334,1.311,0.116,1.794-0.276c1.334-1.085,2.742-2.173,3.796-3.64
	c3.333-4.637,7.467-7.78,11.774-10.557c9.125-5.884,18.947-9.196,28.888-11.693c11.003-2.764,22.102-4.937,33.188-7.124
	c7.571-1.494,15.177-2.742,22.796-3.758c3.427-0.457,6.923-0.077,10.396-0.077c-7.359-7.782-13.377-17.187-18.993-27.057
	c-7.285-12.803-14.321-25.778-19.492-40.271c-5.332-14.945-9.686-30.288-12.362-46.373c-0.856-5.147-1.138-10.347-0.83-14.933
	c1.707-0.977,3.146-1.576,4.4-2.559c3.901-3.059,6.481-7.676,8.654-12.673c0.486-1.117,0.781-2.521,0.79-3.798
	c0.051-6.717,0.279-13.467-0.152-20.142c-0.283-4.379-1.195-8.855-2.525-12.914c-1.429-4.362-4.454-4.642-6.943-1.111
	c-1.901,2.697-3.606,5.619-5.414,8.425c-1.842,2.861-3.589,5.841-5.588,8.512c-1.871,2.5-3.106,1.984-3.696-1.348
	c-0.447-2.52-0.742-5.088-1.031-7.648c-0.921-8.154-3.334-14.613-9.654-18.617c-7.171-4.544-12.215-12.119-15.015-21.887
	c-0.108-0.378-0.276-0.729-0.476-1.251c-0.629,1.174-1.173,2.212-1.736,3.233c-5.076,9.21-11.642,16.488-18.513,23.389
	c-4.349,4.368-8.619,8.865-12.924,13.304L473.228,129.066z M463.019,138.407c0.202-0.37,0.395-0.749,0.606-1.11
	c5.292-9.035,12.134-16.083,18.552-23.681c4.371-5.173,8.632-10.498,12.905-15.804c0.811-1.007,1.445-2.247,2.161-3.379
	C483.366,106.001,471.067,119.501,463.019,138.407z"/>
<path style="fill:#FFFFFF;" d="M463.019,138.407c8.047-18.906,20.346-32.406,34.225-43.974c-0.716,1.132-1.35,2.372-2.161,3.379
	c-4.273,5.306-8.535,10.631-12.905,15.804c-6.419,7.598-13.26,14.646-18.552,23.681
	C463.414,137.658,463.221,138.036,463.019,138.407z"/>
<path d="M509.565,132.26c-0.565,4.701-2.025,8.977-5.389,11.717c-3.076,2.505-6.253,4.816-9.446,7.074
	c-5.284,3.737-10.918,3.516-16.624,2.142c-0.426-0.102-0.846-0.239-1.273-0.476c1.465,0.082,2.93,0.163,4.513,0.252
	c-0.355-1.417-0.667-2.663-1.084-4.325c-2.194,1.281-4.347,2.537-6.775,3.954c0.551-2.732,1.476-4.974,2.765-7.018
	c4.656-7.378,10.695-11.077,18.104-11.261c2.955-0.073,5.919-0.173,8.858-0.535C505.301,133.527,507.353,132.809,509.565,132.26z
	 M487.323,150.06c1.194,1.077,1.9,2.576,3.179,0.759c0.215-0.305,0.678-0.476,1.02-0.461c3.29,0.144,6.285-3.515,6.265-7.939
	c-2.532-0.052-4.261,2.249-6.149,3.156c-0.093,1.193-0.163,2.076-0.232,2.958c-0.172-0.017-0.343-0.034-0.515-0.051
	c-0.23-0.682-0.459-1.364-0.725-2.153c-0.562,0.255-1.037,0.47-1.507,0.683c0.158,0.775,0.278,1.363,0.406,1.987
	C488.571,149.301,488.139,149.564,487.323,150.06z M482.66,148.071c-0.403,0.506-0.939,0.878-0.925,1.213
	c0.058,1.409,0.32,2.774,1.624,3.474C483.133,151.243,482.937,149.93,482.66,148.071z"/>
<linearGradient id="SVGID_2_" gradientUnits="userSpaceOnUse" x1="457.3433" y1="219.0467" x2="486.9778" y2="219.0467">
	<stop  offset="0.0112" style="stop-color:#E2AFA7"/>
	<stop  offset="0.5" style="stop-color:#DC9C95"/>
	<stop  offset="1" style="stop-color:#B87F73"/>
</linearGradient>
<path style="fill:url(#SVGID_2_);" d="M486.978,217.132c-0.786,0.475-1.537,1.181-2.363,1.38c-2.311,0.556-4.643,1.139-6.983,1.282
	c-5.318,0.326-10.382,1.922-15.319,4.348c-1.331,0.654-2.77,1.531-4.037,0.162c-1.307-1.413-0.942-3.467-0.661-5.32
	c0.565-3.72,1.483-4.513,4.456-4.107c0.4,0.055,0.917,0.08,1.211-0.185c2.705-2.44,5.485-1.715,8.328-0.519
	c2.492,1.048,5.005,2.031,7.536,2.912c2.034,0.708,4.097,0.89,6.134-0.148c0.472-0.24,1.005-0.284,1.51-0.419
	C486.853,216.721,486.915,216.926,486.978,217.132z"/>
<linearGradient id="SVGID_3_" gradientUnits="userSpaceOnUse" x1="473.1908" y1="122.4284" x2="515.716" y2="122.4284">
	<stop  offset="0" style="stop-color:#6C5034"/>
	<stop  offset="1" style="stop-color:#2E1000"/>
</linearGradient>
<path style="fill:url(#SVGID_3_);" d="M473.191,129.115c5.336-2.042,9.818-6.103,14.296-10.092
	c8.348-7.437,16.041-7.717,24.549-0.597c1.258,1.053,2.455,2.226,3.681,3.343c-0.075,0.165-0.151,0.331-0.226,0.496
	c-1.029-0.705-2.125-1.287-3.075-2.136c-6.034-5.397-12.248-5.932-18.624-1.138c-3.345,2.515-6.534,5.375-9.921,7.789
	c-2.509,1.789-5.174,3.276-7.866,4.573c-1.531,0.738-2.451-0.259-2.775-2.289C473.228,129.066,473.191,129.115,473.191,129.115z"/>
<linearGradient id="SVGID_4_" gradientUnits="userSpaceOnUse" x1="460.9338" y1="228.9195" x2="481.5828" y2="228.9195">
	<stop  offset="0.0112" style="stop-color:#E2AFA7"/>
	<stop  offset="0.5" style="stop-color:#DC9C95"/>
	<stop  offset="1" style="stop-color:#B87F73"/>
</linearGradient>
<path style="fill:url(#SVGID_4_);" d="M460.934,229.335c2.24,3.008,4.957,3.399,7.902,2.413c3.805-1.274,7.236-3.553,10.407-6.501
	c0.693-0.644,1.399-1.265,2.34-1.587c-0.858,1.104-1.659,2.294-2.585,3.296c-3.133,3.391-6.592,6.018-10.693,7.013
	C464.867,234.801,462.204,233.163,460.934,229.335z"/>
<path d="M551.415,141.574c2.993,3.151,2.967,7.636-0.117,11.116c-0.647,0.73-1.424,1.302-2.194,1.82
	c-1.199,0.806-1.867,1.968-2.183,3.687c-0.269,1.46-0.773,2.902-1.393,4.178c-0.279,0.575-1.238,1.168-1.628,0.959
	c-0.517-0.278-1.014-1.287-1.103-2.061c-0.212-1.839-0.18-3.725,0.036-5.684c0.155,1.142,0.339,2.278,0.457,3.426
	c0.124,1.204,0.184,2.419,0.272,3.629c0.213,0.092,0.426,0.183,0.638,0.275c0.473-0.98,1.228-1.899,1.366-2.95
	c0.411-3.147,1.591-5.162,3.868-6.715C553.069,150.775,553.693,146.167,551.415,141.574z"/>
<path d="M461.179,190.457c1.626-1.459,3.519-1.913,5.447-1.135c0.627,0.253,0.999,1.54,1.487,2.354
	c-0.687,0.302-1.446,1.005-2.048,0.83C464.412,192.025,462.825,191.175,461.179,190.457z"/>
<path d="M449.642,185.437c0.002,5.139,2.509,7.654,5.885,9.402c1.338,0.693,2.544,1.8,3.642,3.129
	c-2.553-1.626-5.136-3.181-7.648-4.905c-1.613-1.107-2.157-3.047-2.002-5.332c0.052-0.763,0.085-1.527,0.127-2.291
	C449.645,185.44,449.642,185.437,449.642,185.437z"/>
<path style="fill:#FFFFFF;" d="M487.323,150.06c0.816-0.496,1.247-0.759,1.743-1.06c-0.128-0.624-0.248-1.212-0.406-1.987
	c0.47-0.213,0.945-0.428,1.507-0.683c0.266,0.789,0.495,1.471,0.725,2.153c0.172,0.017,0.343,0.034,0.515,0.051
	c0.069-0.882,0.138-1.765,0.232-2.958c1.888-0.907,3.617-3.208,6.149-3.156c0.02,4.424-2.975,8.083-6.265,7.939
	c-0.342-0.015-0.805,0.156-1.02,0.461C489.223,152.636,488.517,151.137,487.323,150.06z"/>
<path style="fill:#FFFFFF;" d="M482.66,148.071c0.277,1.859,0.473,3.172,0.699,4.688c-1.304-0.7-1.566-2.065-1.624-3.474
	C481.721,148.949,482.257,148.577,482.66,148.071z"/>
</svg>
